<?xml version="1.0" encoding="utf-8"?>
<!-- Generator: Adobe Illustrator 18.1.0, SVG Export Plug-In . SVG Version: 6.00 Build 0)  -->
<svg version="1.1" id="Layer_1" xmlns="http://www.w3.org/2000/svg" xmlns:xlink="http://www.w3.org/1999/xlink" x="0px" y="0px"
	 viewBox="-1.6 131.6 612 612" enable-background="new -1.6 131.6 612 612" xml:space="preserve">
<path fill="#37A198" d="M610.4,380.2l-135-13.5l85.8-104.9l-81-81.2l-104.9,85.8l-13.5-134.8H247l-13.5,135l-104.9-85.9l-81.2,81.2
	l85.8,104.9L-1.6,380.2V495l135,13.5L47.4,613.4l81.2,81.2l104.9-85.8L247,743.6h114.7l13.5-135l104.9,85.8l81.2-81.2l-85.8-104.9
	L610.4,495V380.2z M419.1,390v95L352,552.4h-95l-67.3-67.2v-95l67.2-67.2h95L419.1,390z M266.1,399.4h76.5v76.5h-76.5V399.4z"/>
</svg>
